<mxfile host="65bd71144e">
    <diagram id="S0dW8mDkV5JYmvJ-x2qE" name="Page-1">
        <mxGraphModel dx="1896" dy="1997" grid="1" gridSize="10" guides="1" tooltips="1" connect="1" arrows="1" fold="1" page="1" pageScale="1" pageWidth="827" pageHeight="1169" math="0" shadow="0">
            <root>
                <mxCell id="0"/>
                <mxCell id="1" parent="0"/>
                <mxCell id="3" value="" style="shape=mxgraph.cisco.storage.cloud;sketch=0;html=1;pointerEvents=1;dashed=0;fillColor=none;strokeWidth=2;verticalLabelPosition=bottom;verticalAlign=top;align=center;outlineConnect=0;" vertex="1" parent="1">
                    <mxGeometry x="220" y="220" width="410" height="270" as="geometry"/>
                </mxCell>
                <mxCell id="4" value="SALLE 213" style="text;html=1;strokeColor=#6F0000;fillColor=#a20025;align=center;verticalAlign=middle;whiteSpace=wrap;rounded=0;fontColor=#ffffff;" vertex="1" parent="1">
                    <mxGeometry x="470" y="270" width="90" height="30" as="geometry"/>
                </mxCell>
                <mxCell id="5" value="10.213.0.0/16" style="text;html=1;strokeColor=#6F0000;fillColor=#a20025;align=center;verticalAlign=middle;whiteSpace=wrap;rounded=0;fontColor=#ffffff;" vertex="1" parent="1">
                    <mxGeometry x="468" y="300" width="94" height="30" as="geometry"/>
                </mxCell>
                <mxCell id="8" value="" style="shape=mxgraph.cisco.routers.router;sketch=0;html=1;pointerEvents=1;dashed=0;fillColor=#036897;strokeColor=#ffffff;strokeWidth=2;verticalLabelPosition=bottom;verticalAlign=top;align=center;outlineConnect=0;" vertex="1" parent="1">
                    <mxGeometry x="380" y="340" width="78" height="53" as="geometry"/>
                </mxCell>
                <mxCell id="9" value="" style="shape=mxgraph.cisco.storage.cloud;sketch=0;html=1;pointerEvents=1;dashed=0;strokeWidth=2;verticalLabelPosition=bottom;verticalAlign=top;align=center;outlineConnect=0;fillColor=none;" vertex="1" parent="1">
                    <mxGeometry x="-80" y="440" width="460" height="330" as="geometry"/>
                </mxCell>
                <mxCell id="10" value="" style="shape=mxgraph.cisco.routers.router;sketch=0;html=1;pointerEvents=1;dashed=0;fillColor=#036897;strokeColor=#ffffff;strokeWidth=2;verticalLabelPosition=bottom;verticalAlign=top;align=center;outlineConnect=0;" vertex="1" parent="1">
                    <mxGeometry x="204" y="530" width="76" height="50" as="geometry"/>
                </mxCell>
                <mxCell id="11" value="" style="endArrow=none;html=1;entryX=0.12;entryY=0.9;entryDx=0;entryDy=0;entryPerimeter=0;exitX=0.88;exitY=0.1;exitDx=0;exitDy=0;exitPerimeter=0;" edge="1" parent="1" source="10" target="8">
                    <mxGeometry width="50" height="50" relative="1" as="geometry">
                        <mxPoint x="390" y="410" as="sourcePoint"/>
                        <mxPoint x="440" y="360" as="targetPoint"/>
                    </mxGeometry>
                </mxCell>
                <mxCell id="12" value="" style="shape=mxgraph.cisco.computers_and_peripherals.pc;sketch=0;html=1;pointerEvents=1;dashed=0;fillColor=#036897;strokeColor=#ffffff;strokeWidth=2;verticalLabelPosition=bottom;verticalAlign=top;align=center;outlineConnect=0;" vertex="1" parent="1">
                    <mxGeometry x="60" y="605" width="70" height="60" as="geometry"/>
                </mxCell>
                <mxCell id="13" value="PC5" style="text;html=1;strokeColor=#001DBC;fillColor=#0050ef;align=center;verticalAlign=middle;whiteSpace=wrap;rounded=0;fontColor=#ffffff;" vertex="1" parent="1">
                    <mxGeometry x="65" y="680" width="60" height="30" as="geometry"/>
                </mxCell>
                <mxCell id="14" value="" style="endArrow=none;html=1;entryX=0.88;entryY=0.9;entryDx=0;entryDy=0;entryPerimeter=0;" edge="1" parent="1" source="21" target="8">
                    <mxGeometry width="50" height="50" relative="1" as="geometry">
                        <mxPoint x="390" y="510" as="sourcePoint"/>
                        <mxPoint x="440" y="460" as="targetPoint"/>
                    </mxGeometry>
                </mxCell>
                <mxCell id="15" value="" style="endArrow=none;html=1;exitX=0.83;exitY=0.5;exitDx=0;exitDy=0;exitPerimeter=0;entryX=0.12;entryY=0.9;entryDx=0;entryDy=0;entryPerimeter=0;" edge="1" parent="1" source="12" target="10">
                    <mxGeometry width="50" height="50" relative="1" as="geometry">
                        <mxPoint x="390" y="510" as="sourcePoint"/>
                        <mxPoint x="440" y="460" as="targetPoint"/>
                    </mxGeometry>
                </mxCell>
                <mxCell id="16" value="192.168.5.0/24" style="text;html=1;strokeColor=#001DBC;fillColor=#0050ef;align=center;verticalAlign=middle;whiteSpace=wrap;rounded=0;fontColor=#ffffff;" vertex="1" parent="1">
                    <mxGeometry x="20" y="510" width="110" height="30" as="geometry"/>
                </mxCell>
                <mxCell id="17" value=".253" style="text;html=1;strokeColor=#001DBC;fillColor=#0050ef;align=center;verticalAlign=middle;whiteSpace=wrap;rounded=0;fontColor=#ffffff;" vertex="1" parent="1">
                    <mxGeometry x="30" y="605" width="30" height="30" as="geometry"/>
                </mxCell>
                <mxCell id="18" value=".254" style="text;html=1;strokeColor=#001DBC;fillColor=#0050ef;align=center;verticalAlign=middle;whiteSpace=wrap;rounded=0;fontColor=#ffffff;" vertex="1" parent="1">
                    <mxGeometry x="210" y="585" width="26" height="30" as="geometry"/>
                </mxCell>
                <mxCell id="19" value=".0.82" style="text;html=1;strokeColor=#6F0000;fillColor=#a20025;align=center;verticalAlign=middle;whiteSpace=wrap;rounded=0;fontColor=#ffffff;" vertex="1" parent="1">
                    <mxGeometry x="290" y="520" width="40" height="30" as="geometry"/>
                </mxCell>
                <mxCell id="20" value="" style="shape=mxgraph.cisco.storage.cloud;sketch=0;html=1;pointerEvents=1;dashed=0;strokeWidth=2;verticalLabelPosition=bottom;verticalAlign=top;align=center;outlineConnect=0;fillColor=none;" vertex="1" parent="1">
                    <mxGeometry x="367" y="500" width="460" height="320" as="geometry"/>
                </mxCell>
                <mxCell id="21" value="" style="shape=mxgraph.cisco.routers.router;sketch=0;html=1;pointerEvents=1;dashed=0;fillColor=#036897;strokeColor=#ffffff;strokeWidth=2;verticalLabelPosition=bottom;verticalAlign=top;align=center;outlineConnect=0;" vertex="1" parent="1">
                    <mxGeometry x="520" y="580" width="76" height="50" as="geometry"/>
                </mxCell>
                <mxCell id="22" value="" style="shape=mxgraph.cisco.computers_and_peripherals.pc;sketch=0;html=1;pointerEvents=1;dashed=0;fillColor=#036897;strokeColor=#ffffff;strokeWidth=2;verticalLabelPosition=bottom;verticalAlign=top;align=center;outlineConnect=0;" vertex="1" parent="1">
                    <mxGeometry x="640" y="650" width="70" height="60" as="geometry"/>
                </mxCell>
                <mxCell id="23" value="" style="endArrow=none;html=1;entryX=0.88;entryY=0.9;entryDx=0;entryDy=0;entryPerimeter=0;exitX=0.16;exitY=0.5;exitDx=0;exitDy=0;exitPerimeter=0;" edge="1" parent="1" source="22" target="21">
                    <mxGeometry width="50" height="50" relative="1" as="geometry">
                        <mxPoint x="618.8516483516482" y="792" as="sourcePoint"/>
                        <mxPoint x="530" y="635" as="targetPoint"/>
                    </mxGeometry>
                </mxCell>
                <mxCell id="24" value="PC6" style="text;html=1;strokeColor=#006EAF;fillColor=#1ba1e2;align=center;verticalAlign=middle;whiteSpace=wrap;rounded=0;fontColor=#ffffff;" vertex="1" parent="1">
                    <mxGeometry x="645" y="720" width="60" height="30" as="geometry"/>
                </mxCell>
                <mxCell id="25" value=".253" style="text;html=1;strokeColor=#006EAF;fillColor=#1ba1e2;align=center;verticalAlign=middle;whiteSpace=wrap;rounded=0;fontColor=#ffffff;" vertex="1" parent="1">
                    <mxGeometry x="710" y="645" width="30" height="30" as="geometry"/>
                </mxCell>
                <mxCell id="26" value=".254" style="text;html=1;strokeColor=#006EAF;fillColor=#1ba1e2;align=center;verticalAlign=middle;whiteSpace=wrap;rounded=0;fontColor=#ffffff;" vertex="1" parent="1">
                    <mxGeometry x="550" y="635" width="30" height="30" as="geometry"/>
                </mxCell>
                <mxCell id="27" value="192.168.6.0/24" style="text;html=1;strokeColor=#006EAF;fillColor=#1ba1e2;align=center;verticalAlign=middle;whiteSpace=wrap;rounded=0;fontColor=#ffffff;" vertex="1" parent="1">
                    <mxGeometry x="580" y="530" width="100" height="30" as="geometry"/>
                </mxCell>
                <mxCell id="28" value=".0.134" style="text;html=1;strokeColor=#6F0000;fillColor=#a20025;align=center;verticalAlign=middle;whiteSpace=wrap;rounded=0;fontColor=#ffffff;" vertex="1" parent="1">
                    <mxGeometry x="480" y="555" width="40" height="30" as="geometry"/>
                </mxCell>
                <mxCell id="29" value="" style="shape=mxgraph.cisco.storage.cloud;sketch=0;html=1;pointerEvents=1;dashed=0;strokeWidth=2;verticalLabelPosition=bottom;verticalAlign=top;align=center;outlineConnect=0;fillColor=none;" vertex="1" parent="1">
                    <mxGeometry x="-40" y="-80" width="460" height="320" as="geometry"/>
                </mxCell>
                <mxCell id="30" value="" style="shape=mxgraph.cisco.routers.router;sketch=0;html=1;pointerEvents=1;dashed=0;fillColor=#036897;strokeColor=#ffffff;strokeWidth=2;verticalLabelPosition=bottom;verticalAlign=top;align=center;outlineConnect=0;" vertex="1" parent="1">
                    <mxGeometry x="185" y="120" width="78" height="53" as="geometry"/>
                </mxCell>
                <mxCell id="31" value="" style="shape=mxgraph.cisco.computers_and_peripherals.pc;sketch=0;html=1;pointerEvents=1;dashed=0;fillColor=#036897;strokeColor=#ffffff;strokeWidth=2;verticalLabelPosition=bottom;verticalAlign=top;align=center;outlineConnect=0;" vertex="1" parent="1">
                    <mxGeometry x="65" width="70" height="60" as="geometry"/>
                </mxCell>
                <mxCell id="32" value="" style="endArrow=none;html=1;entryX=0.88;entryY=0.9;entryDx=0;entryDy=0;entryPerimeter=0;exitX=0.12;exitY=0.1;exitDx=0;exitDy=0;exitPerimeter=0;" edge="1" parent="1" source="8" target="30">
                    <mxGeometry width="50" height="50" relative="1" as="geometry">
                        <mxPoint x="300" y="220" as="sourcePoint"/>
                        <mxPoint x="458.6399999999999" y="397.6999999999998" as="targetPoint"/>
                    </mxGeometry>
                </mxCell>
                <mxCell id="33" value="" style="endArrow=none;html=1;entryX=0.86;entryY=0.85;entryDx=0;entryDy=0;entryPerimeter=0;exitX=0.12;exitY=0.1;exitDx=0;exitDy=0;exitPerimeter=0;" edge="1" parent="1" source="30" target="31">
                    <mxGeometry width="50" height="50" relative="1" as="geometry">
                        <mxPoint x="166.77831569259104" y="312.3" as="sourcePoint"/>
                        <mxPoint x="69.99999999999989" y="119.99999999999983" as="targetPoint"/>
                    </mxGeometry>
                </mxCell>
                <mxCell id="34" value="192.168.11.0/24" style="text;html=1;strokeColor=#005700;fillColor=#008a00;align=center;verticalAlign=middle;whiteSpace=wrap;rounded=0;fontColor=#ffffff;" vertex="1" parent="1">
                    <mxGeometry x="170" y="-50" width="100" height="30" as="geometry"/>
                </mxCell>
                <mxCell id="35" value="PC11" style="text;html=1;strokeColor=#005700;fillColor=#008a00;align=center;verticalAlign=middle;whiteSpace=wrap;rounded=0;fontColor=#ffffff;" vertex="1" parent="1">
                    <mxGeometry x="60" y="65" width="45" height="30" as="geometry"/>
                </mxCell>
                <mxCell id="36" value=".253" style="text;html=1;strokeColor=#005700;fillColor=#008a00;align=center;verticalAlign=middle;whiteSpace=wrap;rounded=0;fontColor=#ffffff;" vertex="1" parent="1">
                    <mxGeometry x="140" y="35" width="30" height="30" as="geometry"/>
                </mxCell>
                <mxCell id="37" value=".254" style="text;html=1;strokeColor=#005700;fillColor=#008a00;align=center;verticalAlign=middle;whiteSpace=wrap;rounded=0;fontColor=#ffffff;" vertex="1" parent="1">
                    <mxGeometry x="150" y="120" width="30" height="30" as="geometry"/>
                </mxCell>
                <mxCell id="38" value=".0.174" style="text;html=1;strokeColor=#6F0000;fillColor=#a20025;align=center;verticalAlign=middle;whiteSpace=wrap;rounded=0;fontColor=#ffffff;" vertex="1" parent="1">
                    <mxGeometry x="220" y="180" width="40" height="30" as="geometry"/>
                </mxCell>
            </root>
        </mxGraphModel>
    </diagram>
</mxfile>